Coordinates
version=1
nRows=24
nColumns=24
inDegrees=yes

Units are S.I. units (second, meters, Newtons, ...)
Angles are in degrees.

endheader
time	pelvis_tilt	pelvis_list	pelvis_rotation	pelvis_tx	pelvis_ty	pelvis_tz	hip_flexion_r	hip_adduction_r	hip_rotation_r	knee_angle_r	ankle_angle_r	subtalar_angle_r	mtp_angle_r	hip_flexion_l	hip_adduction_l	hip_rotation_l	knee_angle_l	ankle_angle_l	subtalar_angle_l	mtp_angle_l	lumbar_extension	lumbar_bending	lumbar_rotation
      0.45800000	     -1.28061744	      2.57085660	     -1.43656643	     -0.80609229	      1.04308190	      0.29942950	     26.86589357	     -1.45788923	     -2.35639422	     -4.49381105	      6.41614034	      0.48668471	     11.06682022	    -17.47648540	      3.77019541	      1.03379886	     -3.99447932	     17.27818332	      5.95515540	      3.93858878	    -17.53533234	     -0.64354745	     -4.66025083
      0.46216667	     -1.24503276	      2.52023414	     -1.34082193	     -0.80006505	      1.04218691	      0.29952516	     26.90613600	     -1.38468227	     -2.25683804	     -4.90005837	      6.30785815	      0.26107902	     11.06402825	    -17.61195252	      3.67459308	      1.03347801	     -4.53835116	     17.48270612	      6.17607295	      4.00308677	    -17.57756574	     -0.43651699	     -4.72286901
      0.46633333	     -1.20786680	      2.47874892	     -1.25822560	     -0.79401650	      1.04131923	      0.29964687	     26.97097751	     -1.31863543	     -2.20167656	     -5.42408327	      6.23166992	      0.13228233	     11.06364533	    -17.77122309	      3.59715681	      1.14693016	     -5.02889461	     17.56759239	      6.17190555	      4.01685068	    -17.63587288	     -0.25381401	     -4.70223490
      0.47050000	     -1.14883286	      2.40013037	     -1.14354673	     -0.78789876	      1.04055277	      0.29973068	     26.94906205	     -1.22355093	     -2.06787530	     -5.88711158	      5.98230911	     -0.28995953	     11.07778743	    -17.87533105	      3.45613245	      1.01356625	     -5.69974553	     17.83352198	      6.64601360	      4.13529006	    -17.67670099	      0.00078071	     -4.79351236
      0.47466667	     -1.10603915	      2.33539160	     -1.04054987	     -0.78174180	      1.03978914	      0.29984533	     26.96683969	     -1.14042823	     -1.97300759	     -6.45038480	      5.78105418	     -0.59316195	     11.11131348	    -17.96818419	      3.33557674	      0.95510010	     -6.35278085	     17.99201270	      6.93594612	      4.30510023	    -17.71609598	      0.22173392	     -4.78025006
      0.47883333	     -1.05403256	      2.26874145	     -0.92666702	     -0.77552878	      1.03909437	      0.29992785	     26.98343073	     -1.06784227	     -1.97685921	     -7.08719021	      5.57237305	     -0.79435794	     11.11692526	    -18.09379854	      3.21971035	      1.06155653	     -6.96362549	     18.06199111	      6.95973513	      4.35207875	    -17.74932197	      0.44352927	     -4.75972792
      0.48300000	     -1.02117783	      2.16770753	     -0.82708118	     -0.76924174	      1.03841443	      0.30008197	     26.97022087	     -0.94108795	     -1.81002720	     -7.66123593	      5.16967555	     -1.30578513	     11.15851583	    -18.14634321	      3.05205940	      0.90521210	     -7.68447525	     18.18350411	      7.39278235	      4.56426612	    -17.76521189	      0.73306909	     -4.82921930
      0.48716667	     -0.96721116	      2.07578178	     -0.71331868	     -0.76295452	      1.03781687	      0.30020822	     26.95037517	     -0.83851013	     -1.74770960	     -8.30656349	      4.80650822	     -1.66981399	     11.21697595	    -18.20911002	      2.89280335	      0.82167509	     -8.42783606	     18.26310125	      7.70724524	      4.84212248	    -17.80588601	      0.99775855	     -4.81052377
      0.49133333	     -0.93622013	      1.98323893	     -0.59946477	     -0.75659411	      1.03723529	      0.30034749	     26.94868462	     -0.73626479	     -1.68840579	     -8.97406880	      4.39738886	     -2.05275099	     11.27348164	    -18.24349767	      2.73386153	      0.77445855	     -9.18499016	     18.27952234	      7.93796336	      5.13824163	    -17.80031116	      1.26649636	     -4.81619960
      0.49550000	     -0.89321010	      1.88211491	     -0.47838929	     -0.75019388	      1.03673610	      0.30047102	     26.92695131	     -0.63385156	     -1.67362257	     -9.65495759	      3.95715252	     -2.39635694	     11.31940595	    -18.27227437	      2.56412405	      0.74187832	     -9.97748909	     18.27534131	      8.16267127	      5.41871243	    -17.81888113	      1.55503593	     -4.79584637
      0.49966667	     -0.84829366	      1.77909586	     -0.36771042	     -0.74376983	      1.03627419	      0.30065182	     26.90297739	     -0.52285046	     -1.62256930	    -10.35805317	      3.49085453	     -2.80127594	     11.37164715	    -18.27566037	      2.38456026	      0.60962731	    -10.82368302	     18.23023211	      8.45464692	      5.78964093	    -17.81833481	      1.82749259	     -4.79253477
      0.50383333	     -0.79786438	      1.66937066	     -0.25274039	     -0.73731558	      1.03588818	      0.30082538	     26.86827294	     -0.41226004	     -1.61085952	    -11.07041845	      3.00863593	     -3.15459460	     11.42010833	    -18.26575426	      2.19625711	      0.48866774	    -11.70260084	     18.14482226	      8.73934244	      6.22143804	    -17.83050479	      2.12300603	     -4.76077309
      0.50800000	     -0.77100929	      1.58370979	     -0.13496658	     -0.73083888	      1.03551109	      0.30100687	     26.88131514	     -0.33732939	     -1.66761507	    -11.84597553	      2.57231480	     -3.35947943	     11.77232914	    -18.20850014	      2.02978608	      0.38171660	    -12.61669605	     17.92163532	      8.95094574	      9.65791676	    -17.81483692	      2.36717791	     -4.68930721
      0.51216667	     -0.72502243	      1.47187544	     -0.01773554	     -0.72433902	      1.03524463	      0.30120559	     26.84390940	     -0.23016486	     -1.66120322	    -12.57166832	      2.06118599	     -3.74523319	     11.75244537	    -18.15441500	      1.83751628	      0.30126164	    -13.56893380	     17.73727745	      9.13681092	      9.74123638	    -17.81377329	      2.66724433	     -4.70809131
      0.51633333	     -0.68243292	      1.36396624	      0.09640872	     -0.71782275	      1.03501724	      0.30142525	     26.82282741	     -0.13267845	     -1.69782257	    -13.33731345	      1.60675259	     -4.02227695	     11.72645074	    -18.05465480	      1.63746641	      0.12532918	    -14.59936955	     17.52378985	      9.44780110	      9.90136051	    -17.80839953	      2.95374965	     -4.66065644
      0.52050000	     -0.62862161	      1.26873601	      0.20500665	     -0.71132163	      1.03486265	      0.30168826	     26.79700563	     -0.04813697	     -1.73869806	    -14.12428980	      1.18285995	     -4.26961131	     11.68044857	    -17.93362568	      1.44200390	     -0.09110083	    -15.68117135	     17.23760289	      9.81271336	     10.22929429	    -17.82534531	      3.20573463	     -4.61533457
      0.52466667	     -0.60784827	      1.15917674	      0.30754527	     -0.70475991	      1.03470233	      0.30195028	     26.81161685	      0.04725406	     -1.80796777	    -14.93777256	      0.80856777	     -4.48317144	     11.62986548	    -17.75845325	      1.23311152	     -0.30440970	    -16.80087698	     16.91685567	     10.09822850	     10.57297252	    -17.78095450	      3.50451420	     -4.57222932
      0.52883333	     -0.56349897	      1.04912324	      0.41933367	     -0.69821741	      1.03466812	      0.30222980	     26.78244716	      0.13933468	     -1.86974974	    -15.71943446	      0.46744416	     -4.66510821	     11.16327092	    -17.57440925	      1.01425988	     -0.50870675	    -17.96598175	     16.43098280	     10.29936084	     13.98550964	    -17.78025638	      3.77640789	     -4.47070194
      0.53300000	     -0.53572686	      0.94662014	      0.53290859	     -0.69167787	      1.03464366	      0.30251057	     26.78652915	      0.21341398	     -1.98801685	    -16.54185638	      0.22306229	     -4.73687656	     11.14802835	    -17.32808624	      0.79375020	     -0.74615709	    -19.21609912	     15.99696739	     10.58574596	     14.05964763	    -17.74458710	      4.05332654	     -4.44988957
      0.53716667	     -0.49784741	      0.84060919	      0.63759921	     -0.68514350	      1.03468993	      0.30283134	     26.77205280	      0.29564694	     -2.09170462	    -17.35277785	      0.01201592	     -4.82069762	     11.11930927	    -17.06199762	      0.55995936	     -1.02102637	    -20.51350691	     15.47965813	     10.90161892	     14.20096088	    -17.72727063	      4.32580695	     -4.38053581
      0.54133333	     -0.45376323	      0.73931044	      0.72527711	     -0.67862666	      1.03478567	      0.30320105	     26.75599386	      0.37946680	     -2.18938115	    -18.17913514	     -0.12719546	     -4.89383233	     11.07044285	    -16.77133089	      0.32308029	     -1.33881208	    -21.85303941	     14.91423017	     11.24531882	     14.45373425	    -17.72588544	      4.59505020	     -4.31061421
      0.54550000	     -0.40757643	      0.62731160	      0.82776447	     -0.67212497	      1.03497627	      0.30357853	     26.70479143	      0.47250655	     -2.27814612	    -18.94150626	     -0.25992699	     -4.98972217	     10.46599302	    -16.44310184	      0.06291785	     -1.62898725	    -23.24116092	     14.18397434	     11.48553300	     17.63283263	    -17.72437677	      4.85491771	     -4.20439787
      0.54966667	     -0.36727311	      0.51959745	      0.92176551	     -0.66561904	      1.03518376	      0.30395929	     26.66449060	      0.55267991	     -2.42630634	    -19.72185471	     -0.23294538	     -4.89841334	     10.46038241	    -16.08061985	     -0.19718442	     -1.93377252	    -24.67912248	     13.46389612	     11.71419388	     17.68969987	    -17.70240151	      5.12300927	     -4.14320840
      0.55383333	     -0.31395570	      0.41308600	      1.00722735	     -0.65918019	      1.03544778	      0.30438247	     26.60272130	      0.63963600	     -2.55225530	    -20.48441493	     -0.18682518	     -4.86792941	     10.43770924	    -15.69028736	     -0.46925967	     -2.26426060	    -26.17512095	     12.70559601	     11.99766529	     17.82244592	    -17.71924462	      5.39093812	     -4.05513714
